HIERARCHY
ROOT Hips
{
	OFFSET 0.00000 0.00000 0.00000
	CHANNELS 6 Xposition Yposition Zposition Zrotation Yrotation Xrotation 
	JOINT LHipJoint
	{
		OFFSET 0 0 0
		CHANNELS 3 Zrotation Yrotation Xrotation
		JOINT LeftUpLeg
		{
			OFFSET 1.55766 -1.60504 1.11378
			CHANNELS 3 Zrotation Yrotation Xrotation
			JOINT LeftLeg
			{
				OFFSET 2.29047 -6.29302 0.00000
				CHANNELS 3 Zrotation Yrotation Xrotation
				JOINT LeftFoot
				{
					OFFSET 2.52265 -6.93093 0.00000
					CHANNELS 3 Zrotation Yrotation Xrotation
					JOINT LeftToeBase
					{
						OFFSET 0.17633 -0.48446 2.02656
						CHANNELS 3 Zrotation Yrotation Xrotation
						End Site
						{
							OFFSET 0.00000 -0.00000 1.04989
						}
					}
				}
			}
		}
	}
	JOINT RHipJoint
	{
		OFFSET 0 0 0
		CHANNELS 3 Zrotation Yrotation Xrotation
		JOINT RightUpLeg
		{
			OFFSET -1.48599 -1.60504 1.11378
			CHANNELS 3 Zrotation Yrotation Xrotation
			JOINT RightLeg
			{
				OFFSET -2.27280 -6.24448 0.00000
				CHANNELS 3 Zrotation Yrotation Xrotation
				JOINT RightFoot
				{
					OFFSET -2.50834 -6.89161 0.00000
					CHANNELS 3 Zrotation Yrotation Xrotation
					JOINT RightToeBase
					{
						OFFSET -0.26967 -0.74090 2.08741
						CHANNELS 3 Zrotation Yrotation Xrotation
						End Site
						{
							OFFSET -0.00000 -0.00000 1.10614
						}
					}
				}
			}
		}
	}
	JOINT LowerBack
	{
		OFFSET 0 0 0
		CHANNELS 3 Zrotation Yrotation Xrotation
		JOINT Spine
		{
			OFFSET 0.06481 2.02437 -0.08472
			CHANNELS 3 Zrotation Yrotation Xrotation
			JOINT Spine1
			{
				OFFSET 0.00015 1.96711 0.18069
				CHANNELS 3 Zrotation Yrotation Xrotation
				JOINT Neck
				{
					OFFSET 0 0 0
					CHANNELS 3 Zrotation Yrotation Xrotation
					JOINT Neck1
					{
						OFFSET -0.29961 1.68293 -0.13041
						CHANNELS 3 Zrotation Yrotation Xrotation
						JOINT Head
						{
							OFFSET 0.59697 1.61501 -0.14669
							CHANNELS 3 Zrotation Yrotation Xrotation
							End Site
							{
								OFFSET 0.22973 1.74906 -0.10148
							}
						}
					}
				}
				JOINT LeftShoulder
				{
					OFFSET 0 0 0
					CHANNELS 3 Zrotation Yrotation Xrotation
					JOINT LeftArm
					{
						OFFSET 3.37968 1.02893 0.31147
						CHANNELS 3 Zrotation Yrotation Xrotation
						JOINT LeftForeArm
						{
							OFFSET 5.19807 -0.00000 -0.00000
							CHANNELS 3 Zrotation Yrotation Xrotation
							JOINT LeftHand
							{
								OFFSET 3.09370 -0.00000 -0.00000
								CHANNELS 3 Zrotation Yrotation Xrotation
								JOINT LeftFingerBase
								{
									OFFSET 0 0 0
									CHANNELS 3 Zrotation Yrotation Xrotation
									JOINT LeftHandIndex1
									{
										OFFSET 0.67263 -0.00000 -0.00000
										CHANNELS 3 Zrotation Yrotation Xrotation
										End Site
										{
											OFFSET 0.54229 -0.00000 -0.00000
										}
									}
								}
								JOINT LThumb
								{
									OFFSET 0 0 0
									CHANNELS 3 Zrotation Yrotation Xrotation
									End Site
									{
										OFFSET 0.55057 -0.00000 0.55057
									}
								}
							}
						}
					}
				}
				JOINT RightShoulder
				{
					OFFSET 0 0 0
					CHANNELS 3 Zrotation Yrotation Xrotation
					JOINT RightArm
					{
						OFFSET -3.38254 0.96355 -0.16120
						CHANNELS 3 Zrotation Yrotation Xrotation
						JOINT RightForeArm
						{
							OFFSET -5.45222 -0.00000 -0.00000
							CHANNELS 3 Zrotation Yrotation Xrotation
							JOINT RightHand
							{
								OFFSET -3.01284 -0.00000 -0.00000
								CHANNELS 3 Zrotation Yrotation Xrotation
								JOINT RightFingerBase
								{
									OFFSET 0 0 0
									CHANNELS 3 Zrotation Yrotation Xrotation
									JOINT RightHandIndex1
									{
										OFFSET -0.62230 -0.00000 -0.00000
										CHANNELS 3 Zrotation Yrotation Xrotation
										End Site
										{
											OFFSET -0.50171 -0.00000 -0.00000
										}
									}
								}
								JOINT RThumb
								{
									OFFSET 0 0 0
									CHANNELS 3 Zrotation Yrotation Xrotation
									End Site
									{
										OFFSET -0.50937 -0.00000 0.50937
									}
								}
							}
						}
					}
				}
			}
		}
	}
}
MOTION
Frames: 13
Frame Time: .0083333
4.2323 16.3992 14.8699 0 0 0 0 0 0 -21 0 0 0 0 0 0 0 0 0 0 0 0 0 0 21 0 0 0 0 0 0 0 0 0 0 0 0 0 0 0 0 0 0 0 0 0 0 -16 0 0 21 0 0 11 0 0 0 -8 0 0 0 0 0 0 0 0 0 0 0 0 0 0 0 0 0 0 0 0 8 0 0 0 0 0 0 0 0 0 0 0 0 0 0 0 0 0
4.2323 16.3992 14.8699 -4.4562 -4.5383 15.2190 0.0000 0.0000 0.0000 -13.9309 -0.2366 -20.4824 1.8245 8.4906 24.2143 0.8744 -3.0584 -16.9034 1.9950 -8.8556 -25.3446 0.0000 0.0000 0.0000 24.9916 -7.0180 -23.3062 -1.5127 -7.7672 22.0091 1.2467 27.0243 -10.4104 -0.4709 4.4014 -12.2088 5.5360 2.6637 -10.7072 -0.3690 3.1093 -8.8990 -3.2333 1.2827 -3.0357 -29.9257 -9.5846 16.0645 44.3874 -17.4438 -9.4706 23.4194 -11.0139 2.5665 -0.0000 -0.0000 0.0000 -85.4475 11.4674 45.4921 49.1581 -52.6503 -25.5033 -0.0000 0.0000 -57.0269 23.2333 -11.3296 -4.8206 -7.1250 0.0000 -0.0000 -2.7303 17.6881 1.7737 -0.0000 -0.0000 0.0000 90.7680 -3.5804 43.8029 -37.3323 46.4075 -16.4803 0.0000 -0.0000 -14.3344 -9.4742 -13.5392 2.2373 7.1250 -0.0000 -0.0000 16.2017 -43.0987 0.7822
4.2329 16.3984 14.8756 -4.4636 -4.5639 15.2121 0.0000 0.0000 0.0000 -13.9346 -0.1882 -20.4642 1.8240 8.4894 24.2108 0.8774 -3.0922 -16.9276 1.9796 -8.8235 -25.2449 0.0000 0.0000 0.0000 24.9963 -7.0844 -23.3050 -1.5135 -7.7693 22.0154 1.2629 27.1213 -10.3936 -0.4680 4.3877 -12.1700 5.5355 2.6823 -10.7715 -0.3782 3.1290 -8.8853 -3.2376 1.2941 -2.9838 -29.9091 -9.5936 16.0664 44.4244 -17.4432 -9.5245 23.4437 -11.0185 2.5574 -0.0000 -0.0000 0.0000 -85.4200 11.5007 45.5520 49.5229 -52.8013 -25.7936 -0.0000 0.0000 -57.1209 23.2745 -11.3181 -4.8253 -7.1250 0.0000 -0.0000 -2.7009 17.6966 1.7540 -0.0000 -0.0000 0.0000 90.7694 -3.5557 43.8647 -37.5700 46.5625 -16.6527 0.0000 -0.0000 -14.4075 -9.4231 -13.7488 2.2588 7.1250 -0.0000 -0.0000 16.3097 -43.2964 0.7058
4.2335 16.3974 14.8802 -4.4672 -4.5679 15.2023 0.0000 0.0000 0.0000 -13.9313 -0.2095 -20.4265 1.8251 8.4918 24.2182 0.8272 -3.1216 -16.4139 1.8072 -8.4523 -24.0966 0.0000 0.0000 0.0000 24.9958 -7.1355 -23.2914 -1.5131 -7.7682 22.0121 1.2718 27.1767 -10.3874 -0.4650 4.3740 -12.1312 5.5292 2.6801 -10.8311 -0.3745 3.1222 -8.8723 -3.2281 1.2926 -2.9387 -29.8926 -9.6062 16.0410 44.4249 -17.4490 -9.5357 23.4317 -11.0193 2.5604 -0.0000 -0.0000 0.0000 -85.4281 11.5809 45.5478 49.9182 -52.9624 -26.1088 -0.0000 0.0000 -57.2019 23.3052 -11.2274 -4.7944 -7.1250 0.0000 -0.0000 -2.6754 17.7917 1.7319 -0.0000 -0.0000 0.0000 90.7502 -3.5675 43.9431 -37.8520 46.7445 -16.8577 0.0000 -0.0000 -14.5493 -9.4266 -13.8368 2.2738 7.1250 -0.0000 -0.0000 16.3334 -43.3820 0.6713
4.2341 16.3961 14.8843 -4.4812 -4.5701 15.2012 0.0000 0.0000 0.0000 -13.9240 -0.1648 -20.4224 1.8258 8.4933 24.2228 0.8669 -3.0714 -16.8259 1.9822 -8.8288 -25.2612 0.0000 0.0000 0.0000 25.0234 -7.2541 -23.3224 -1.5128 -7.7676 22.0104 1.2979 27.3186 -10.3442 -0.4534 4.3197 -11.9779 5.5390 2.6897 -10.8720 -0.3815 3.1315 -8.8809 -3.2386 1.2968 -2.9241 -29.8813 -9.5999 16.0737 44.4598 -17.4320 -9.5961 23.4672 -11.0181 2.5358 0.0000 0.0000 0.0000 -85.4196 11.6829 45.5704 50.2654 -53.1020 -26.3862 -0.0000 0.0000 -57.2506 23.2871 -11.1956 -4.7769 -7.1250 0.0000 -0.0000 -2.6867 17.8278 1.7371 0.0000 0.0000 0.0000 90.7448 -3.6149 43.9923 -38.1212 46.9165 -17.0541 0.0000 -0.0000 -14.7386 -9.4327 -13.8624 2.2794 7.1250 -0.0000 -0.0000 16.3359 -43.4074 0.6609
4.2346 16.3951 14.8884 -4.4828 -4.5743 15.1958 0.0000 0.0000 0.0000 -13.9243 -0.1739 -20.3943 1.8265 8.4950 24.2279 0.8696 -3.0364 -16.8586 2.0049 -8.8762 -25.4090 0.0000 0.0000 0.0000 25.0295 -7.3333 -23.3291 -1.5121 -7.7659 22.0052 1.3140 27.4086 -10.3217 -0.4479 4.2938 -11.9048 5.5329 2.6953 -10.9162 -0.3881 3.1363 -8.8811 -3.2397 1.3000 -2.8998 -29.8696 -9.6038 16.0828 44.4836 -17.4282 -9.6395 23.4849 -11.0201 2.5244 -0.0000 -0.0000 0.0000 -85.4150 11.7736 45.5878 50.6280 -53.2457 -26.6765 -0.0000 0.0000 -57.3070 23.2901 -11.1470 -4.7572 -7.1250 0.0000 -0.0000 -2.6825 17.8800 1.7313 -0.0000 -0.0000 0.0000 90.7385 -3.6447 44.0439 -38.3917 47.0876 -17.2519 0.0000 -0.0000 -14.9148 -9.4285 -13.9643 2.2948 7.1250 -0.0000 -0.0000 16.3708 -43.5056 0.6215
4.2351 16.3941 14.8921 -4.4828 -4.5761 15.1897 0.0000 0.0000 0.0000 -13.9241 -0.2042 -20.3580 1.8274 8.4969 24.2340 0.8728 -2.9803 -16.8997 2.0289 -8.9260 -25.5641 0.0000 0.0000 0.0000 25.0352 -7.4142 -23.3359 -1.5112 -7.7636 21.9983 1.3296 27.4962 -10.3009 -0.4430 4.2707 -11.8395 5.5262 2.7003 -10.9564 -0.3962 3.1406 -8.8819 -3.2423 1.3028 -2.8782 -29.8578 -9.6087 16.0922 44.5064 -17.4261 -9.6825 23.5011 -11.0230 2.5135 0.0000 0.0000 0.0000 -85.4114 11.8701 45.6012 50.9867 -53.3858 -26.9641 -0.0000 0.0000 -57.3580 23.2898 -11.0954 -4.7355 -7.1250 0.0000 -0.0000 -2.6805 17.9356 1.7267 0.0000 0.0000 0.0000 90.7347 -3.6814 44.0887 -38.6655 47.2591 -17.4527 0.0000 -0.0000 -15.1137 -9.4269 -14.0758 2.3123 7.1250 -0.0000 -0.0000 16.4066 -43.6134 0.5779
4.2355 16.3933 14.8954 -4.4826 -4.5769 15.1831 0.0000 0.0000 0.0000 -13.9233 -0.2452 -20.3164 1.8280 8.4983 24.2382 0.8774 -2.9132 -16.9573 2.0536 -8.9768 -25.7228 0.0000 0.0000 0.0000 25.0414 -7.4941 -23.3417 -1.5100 -7.7606 21.9894 1.3446 27.5809 -10.2814 -0.4387 4.2503 -11.7818 5.5195 2.7054 -10.9936 -0.4049 3.1452 -8.8828 -3.2456 1.3058 -2.8585 -29.8465 -9.6145 16.1058 44.5283 -17.4253 -9.7295 23.5168 -11.0268 2.5012 0.0000 -0.0000 0.0000 -85.4083 11.9680 45.6143 51.3388 -53.5214 -27.2470 -0.0000 0.0000 -57.4074 23.2934 -11.0397 -4.7129 -7.1250 0.0000 -0.0000 -2.6756 17.9954 1.7200 0.0000 -0.0000 0.0000 90.7331 -3.7195 44.1275 -38.9339 47.4254 -17.6501 0.0000 -0.0000 -15.3304 -9.4188 -14.1988 2.3301 7.1250 -0.0000 -0.0000 16.4519 -43.7315 0.5302
4.2359 16.3926 14.8985 -4.4793 -4.5755 15.1750 0.0000 0.0000 0.0000 -13.9261 -0.2880 -20.2751 1.8291 8.5006 24.2451 0.8787 -2.8536 -16.9808 2.0636 -8.9973 -25.7870 0.0000 0.0000 0.0000 25.0437 -7.5725 -23.3441 -1.5083 -7.7565 21.9768 1.3591 27.6598 -10.2599 -0.4349 4.2317 -11.7296 5.5103 2.7091 -11.0284 -0.4144 3.1484 -8.8838 -3.2486 1.3080 -2.8402 -29.8354 -9.6206 16.1222 44.5473 -17.4259 -9.7755 23.5302 -11.0313 2.4887 0.0000 0.0000 0.0000 -85.4058 12.0651 45.6262 51.6810 -53.6514 -27.5224 -0.0000 0.0000 -57.4607 23.3035 -10.9739 -4.6876 -7.1250 0.0000 -0.0000 -2.6657 18.0656 1.7095 0.0000 0.0000 0.0000 90.7336 -3.7607 44.1620 -39.1983 47.5877 -17.8450 0.0000 -0.0000 -15.5604 -9.4085 -14.3331 2.3490 7.1250 -0.0000 -0.0000 16.5030 -43.8603 0.4779
4.2364 16.3922 14.9015 -4.4790 -4.5689 15.1650 0.0000 0.0000 0.0000 -13.9281 -0.3082 -20.2438 1.8305 8.5038 24.2550 0.8810 -2.8231 -17.0095 2.0713 -9.0130 -25.8360 0.0000 0.0000 0.0000 25.0499 -7.6546 -23.3444 -1.5063 -7.7516 21.9622 1.3736 27.7378 -10.2378 -0.4309 4.2128 -11.6760 5.5069 2.7114 -11.0626 -0.4232 3.1493 -8.8829 -3.2544 1.3090 -2.8203 -29.8261 -9.6248 16.1421 44.5670 -17.4242 -9.8234 23.5461 -11.0352 2.4743 -0.0000 0.0000 0.0000 -85.4048 12.1597 45.6342 52.0134 -53.7759 -27.7903 -0.0000 0.0000 -57.5181 23.3195 -10.9026 -4.6612 -7.1250 0.0000 -0.0000 -2.6515 18.1411 1.6959 -0.0000 0.0000 0.0000 90.7345 -3.8022 44.1967 -39.4569 47.7448 -18.0362 0.0000 -0.0000 -15.8029 -9.3958 -14.4637 2.3667 7.1250 -0.0000 -0.0000 16.5554 -43.9853 0.4269
4.2368 16.3918 14.9041 -4.4798 -4.5587 15.1544 0.0000 0.0000 0.0000 -13.9315 -0.2969 -20.2295 1.8325 8.5080 24.2681 0.8834 -2.8302 -17.0320 2.0789 -9.0286 -25.8847 0.0000 0.0000 0.0000 25.0567 -7.7314 -23.3425 -1.5043 -7.7466 21.9471 1.3869 27.8070 -10.2158 -0.4268 4.1928 -11.6196 5.5062 2.7128 -11.0947 -0.4319 3.1489 -8.8812 -3.2618 1.3091 -2.8008 -29.8208 -9.6271 16.1617 44.5883 -17.4211 -9.8705 23.5653 -11.0384 2.4603 0.0000 -0.0000 0.0000 -85.4067 12.2514 45.6382 52.3336 -53.8944 -28.0488 -0.0000 0.0000 -57.5766 23.3405 -10.8301 -4.6354 -7.1250 0.0000 -0.0000 -2.6336 18.2176 1.6800 0.0000 -0.0000 0.0000 90.7370 -3.8459 44.2279 -39.7101 47.8972 -18.2238 0.0000 -0.0000 -16.0478 -9.3812 -14.5982 2.3844 7.1250 -0.0000 -0.0000 16.6111 -44.1136 0.3742
4.2374 16.3913 14.9065 -4.4780 -4.5458 15.1422 0.0000 0.0000 0.0000 -13.9402 -0.2603 -20.2286 1.8349 8.5133 24.2844 0.8859 -2.8684 -17.0497 2.0866 -9.0442 -25.9337 0.0000 0.0000 0.0000 25.0599 -7.8056 -23.3382 -1.5022 -7.7416 21.9320 1.3992 27.8699 -10.1935 -0.4227 4.1728 -11.5634 5.5042 2.7122 -11.1232 -0.4403 3.1463 -8.8811 -3.2685 1.3081 -2.7851 -29.8188 -9.6279 16.1818 44.6065 -17.4170 -9.9154 23.5835 -11.0407 2.4463 0.0000 0.0000 0.0000 -85.4135 12.3455 45.6363 52.6392 -54.0060 -28.2959 -0.0000 0.0000 -57.6352 23.3635 -10.7644 -4.6128 -7.1250 0.0000 -0.0000 -2.6147 18.2866 1.6639 0.0000 0.0000 0.0000 90.7379 -3.8953 44.2606 -39.9572 48.0445 -18.4074 0.0000 -0.0000 -16.2952 -9.3688 -14.7375 2.4034 7.1250 -0.0000 -0.0000 16.6666 -44.2468 0.3191
4.2380 16.3908 14.9087 -4.4780 -4.5318 15.1295 0.0000 0.0000 0.0000 -13.9492 -0.1946 -20.2424 1.8376 8.5192 24.3027 0.8892 -2.9472 -17.0693 2.0869 -9.0448 -25.9357 0.0000 0.0000 0.0000 25.0636 -7.8731 -23.3317 -1.5004 -7.7370 21.9180 1.4099 27.9254 -10.1754 -0.4188 4.1538 -11.5098 5.5081 2.7134 -11.1543 -0.4506 3.1452 -8.8763 -3.2800 1.3079 -2.7625 -29.8194 -9.6292 16.1930 44.6288 -17.4124 -9.9609 23.6047 -11.0424 2.4349 0.0000 -0.0000 0.0000 -85.4208 12.4297 45.6347 52.9247 -54.1091 -28.5270 -0.0000 0.0000 -57.6919 23.3893 -10.7176 -4.5986 -7.1250 0.0000 -0.0000 -2.5946 18.3348 1.6484 0.0000 -0.0000 0.0000 90.7403 -3.9445 44.2889 -40.2056 48.1912 -18.5923 0.0000 -0.0000 -16.5397 -9.3686 -14.8870 2.4271 7.1250 -0.0000 -0.0000 16.7150 -44.3912 0.2587
